#!OML:ASF X:\für Bonn\!DataBase\2005_08_11_Bastian_Final\c3d\Bastian.ASF
:FULLY-SPECIFIED
:DEGREES
141
root -6.52486 21.9713 -3.18683 158.064 -47.7682 -170.307
lowerback 6.9586 -4.49972 -3.05503
upperback 1.27132 -6.26767 -0.435377
thorax -2.2927 -3.12198 1.79052
lowerneck 4.36814 -15.9039 -8.80317
upperneck 1.07616 -22.3188 12.4361
head 2.00478 -11.3609 4.48311
rclavicle 4.4329e-014 3.97569e-015
rhumerus -310.183 0.0754882 -373.24
rradius 37.8229
rwrist -45.647
rhand -49.7784 1085.91
rfingers 7.12502
rthumb -22.3764 -22.8152
lclavicle 4.4329e-014 3.97569e-015
lhumerus 99.1595 -16.9639 60.3227
lradius 35.2084
lwrist -149.585
lhand -16.9381 25.2143
lfingers 7.12502
lthumb 9.29509 54.9894
rfemur -0.241498 -2.14794 24.9111
rtibia 37.1862
rfoot 12.5125 -4.39503
rtoes -27.5544
lfemur 4.90042 6.7722 -12.8729
ltibia 33.8125
lfoot 9.21681 2.24138
ltoes -38.7898
142
root -6.50694 21.8162 -3.22216 157.918 -47.432 -170.145
lowerback 7.02569 -4.44822 -3.01301
upperback 1.32175 -6.19657 -0.338245
thorax -2.27499 -3.08841 1.86451
lowerneck 4.35703 -15.856 -8.83717
upperneck 0.922188 -22.233 12.4675
head 1.95899 -11.3183 4.5084
rclavicle 4.09496e-014 -1.03368e-014
rhumerus -309.946 2.4705 -367.915
rradius 37.9888
rwrist -51.9529
rhand -48.9053 1080.82
rfingers 7.12502
rthumb -21.538 -28.0074
lclavicle 4.09496e-014 -1.03368e-014
lhumerus 98.9423 -17.4172 61.0792
lradius 33.1373
lwrist -148.438
lhand -17.4672 22.2428
lfingers 7.12502
lthumb 8.78456 52.04
rfemur -0.587968 -2.55684 24.7783
rtibia 37.2958
rfoot 12.7327 -4.27218
rtoes -27.2704
lfemur 4.58066 6.85992 -12.7152
ltibia 33.7861
lfoot 9.37825 2.04299
ltoes -39.0971
143
root -6.48884 21.6468 -3.25851 157.754 -47.1211 -169.957
lowerback 7.08558 -4.41947 -2.98268
upperback 1.37418 -6.15563 -0.209045
thorax -2.24502 -3.07016 1.9791
lowerneck 4.29829 -15.808 -8.88955
upperneck 0.817759 -22.1419 12.4327
head 1.92918 -11.2692 4.51165
rclavicle 8.60738e-014 1.27222e-014
rhumerus -309.642 5.2572 -361.354
rradius 38.8321
rwrist -59.2269
rhand -48.5832 1076.39
rfingers 7.12502
rthumb -21.2287 -32.4648
lclavicle 8.60738e-014 1.27222e-014
lhumerus 98.7427 -17.6568 61.5848
lradius 31.197
lwrist -147.248
lhand -17.8173 19.5755
lfingers 7.12502
lthumb 8.44662 49.3866
rfemur -0.966205 -2.9438 24.6617
rtibia 37.4801
rfoot 12.8689 -4.36159
rtoes -26.6869
lfemur 4.27761 7.0661 -12.4803
ltibia 33.7408
lfoot 9.67758 1.68178
ltoes -38.9766
144
root -6.47025 21.4665 -3.29564 157.574 -46.8644 -169.74
lowerback 7.12697 -4.39442 -2.90491
upperback 1.44791 -6.11701 -0.123302
thorax -2.19253 -3.05441 2.02077
lowerneck 4.26092 -15.76 -8.8832
upperneck 0.61802 -22.0512 12.4929
head 1.87239 -11.2245 4.54018
rclavicle 2.38542e-014 -4.77083e-015
rhumerus -309.179 7.92134 -354.702
rradius 39.8828
rwrist -66.2072
rhand -48.4398 1072.52
rfingers 7.12502
rthumb -21.091 -36.3552
lclavicle 2.38542e-014 -4.77083e-015
lhumerus 98.5917 -17.8266 61.8061
lradius 29.479
lwrist -146.172
lhand -18.0826 17.2135
lfingers 7.12502
lthumb 8.19063 47.0347
rfemur -1.37173 -3.39294 24.5433
rtibia 37.7312
rfoot 13.0137 -4.47242
rtoes -26.3268
lfemur 3.97981 7.21461 -12.2134
ltibia 33.702
lfoot 10.0996 1.30741
ltoes -38.7188
145
root -6.45135 21.2698 -3.33339 157.375 -46.6123 -169.541
lowerback 7.19922 -4.3895 -2.88348
upperback 1.52943 -6.11001 0.00668001
thorax -2.13668 -3.05465 2.14319
lowerneck 4.21584 -15.6823 -9.04379
upperneck 0.460772 -21.9329 12.616
head 1.85137 -11.1651 4.60392
rclavicle 6.1822e-014 -1.82882e-014
rhumerus -308.39 10.0622 -348.995
rradius 40.7587
rwrist -71.7609
rhand -48.1047 1069.25
rfingers 7.12502
rthumb -20.769 -39.6614
lclavicle 6.1822e-014 -1.82882e-014
lhumerus 98.5084 -17.6849 61.5556
lradius 27.9718
lwrist -144.944
lhand -18.254 15.1353
lfingers 7.12502
lthumb 8.0252 44.963
rfemur -1.74889 -3.80134 24.4206
rtibia 38.0245
rfoot 13.2299 -4.69448
rtoes -25.6621
lfemur 3.7282 7.28307 -11.9595
ltibia 33.6983
lfoot 10.5921 1.01115
ltoes -39.1177
146
root -6.43053 21.0542 -3.37076 157.126 -46.3977 -169.332
lowerback 7.31552 -4.3814 -2.86153
upperback 1.63203 -6.10149 0.127946
thorax -2.0846 -3.05495 2.25918
lowerneck 4.1695 -15.6109 -9.16232
upperneck 0.236067 -21.8133 12.737
head 1.8055 -11.1057 4.66569
rclavicle 7.59357e-014 1.51076e-014
rhumerus -307.527 11.7083 -344.372
rradius 41.3404
rwrist -75.7896
rhand -47.5805 1066.59
rfingers 7.12502
rthumb -20.2652 -42.3763
lclavicle 7.59357e-014 1.51076e-014
lhumerus 98.492 -17.4065 60.9187
lradius 26.7396
lwrist -143.709
lhand -18.4041 13.2949
lfingers 7.12502
lthumb 7.88028 43.128
rfemur -2.10686 -4.30576 24.2836
rtibia 38.3524
rfoot 13.6556 -4.66674
rtoes -25.6301
lfemur 3.52808 7.13143 -11.7487
ltibia 33.7342
lfoot 11.1805 0.792991
ltoes -40.1994
147
root -6.41043 20.8257 -3.40756 156.862 -46.1704 -169.096
lowerback 7.43719 -4.37842 -2.77762
upperback 1.73087 -6.09568 0.25197
thorax -2.04536 -3.05679 2.34502
lowerneck 4.07638 -15.5498 -9.3484
upperneck 0.063294 -21.7122 12.8683
head 1.79253 -11.053 4.72995
rclavicle 4.69132e-014 -6.36111e-015
rhumerus -306.519 13.0936 -340.179
rradius 41.7587
rwrist -79.1101
rhand -47.1873 1064.67
rfingers 7.12502
rthumb -19.8874 -44.3343
lclavicle 4.69132e-014 -6.36111e-015
lhumerus 98.6456 -16.7819 59.4429
lradius 25.7722
lwrist -141.986
lhand -18.4907 11.6039
lfingers 7.12502
lthumb 7.79672 41.4402
rfemur -2.47609 -4.82181 24.1685
rtibia 38.7178
rfoot 14.1721 -4.52053
rtoes -25.6501
lfemur 3.34107 6.65371 -11.5804
ltibia 33.7944
lfoot 11.8607 0.824743
ltoes -40.6721
148
root -6.3901 20.5841 -3.44329 156.541 -45.9441 -168.815
lowerback 7.62024 -4.38113 -2.61962
upperback 1.8272 -6.09451 0.358825
thorax -2.05199 -3.06051 2.37889
lowerneck 3.92275 -15.48 -9.52978
upperneck -0.0668465 -21.6033 13.0316
head 1.80381 -10.9949 4.79559
rclavicle -5.50634e-014 -1.66979e-014
rhumerus -305.468 14.1625 -336.607
rradius 42.0225
rwrist -81.6229
rhand -46.8545 1063.18
rfingers 7.12502
rthumb -19.5674 -45.8554
lclavicle -5.50634e-014 -1.66979e-014
lhumerus 98.8862 -15.985 57.4609
lradius 25.0179
lwrist -140.029
lhand -18.5684 10.0442
lfingers 7.12502
lthumb 7.7217 39.8833
rfemur -2.83239 -5.36117 24.0871
rtibia 39.1247
rfoot 14.7318 -4.17096
rtoes -26.1784
lfemur 3.16674 5.98942 -11.3875
ltibia 33.8729
lfoot 12.5376 0.975038
ltoes -40.3191
149
root -6.36878 20.328 -3.47846 156.186 -45.7267 -168.578
lowerback 7.88933 -4.37651 -2.47774
upperback 1.9451 -6.08827 0.472935
thorax -2.08163 -3.06236 2.43528
lowerneck 3.74653 -15.425 -9.82357
upperneck -0.228788 -21.511 13.2263
head 1.82621 -10.9435 4.88129
rclavicle -1.89144e-013 1.11319e-014
rhumerus -304.364 14.9962 -333.228
rradius 42.2245
rwrist -83.7725
rhand -46.7662 1062.24
rfingers 7.12502
rthumb -19.4825 -46.808
lclavicle -1.89144e-013 1.11319e-014
lhumerus 99.1184 -15.0428 55.2794
lradius 24.496
lwrist -138.129
lhand -18.663 8.61139
lfingers 7.12502
lthumb 7.63047 38.4537
rfemur -3.14345 -5.815 23.9673
rtibia 39.568
rfoot 15.2146 -3.77392
rtoes -26.5682
lfemur 3.06495 5.29029 -11.1903
ltibia 33.9774
lfoot 13.0981 1.04384
ltoes -40.1118
150
root -6.34779 20.0574 -3.51181 155.795 -45.478 -168.324
lowerback 8.19465 -4.35281 -2.22253
upperback 2.06033 -6.04885 0.54219
thorax -2.15238 -3.04723 2.38429
lowerneck 3.61029 -15.379 -10.1346
upperneck -0.376545 -21.4439 13.4928
head 1.85912 -10.9079 4.98983
rclavicle -5.19822e-014 -1.35174e-014
rhumerus -303.347 15.6622 -330.168
rradius 42.3678
rwrist -85.5903
rhand -46.8418 1061.68
rfingers 7.12502
rthumb -19.5552 -47.3533
lclavicle -5.19822e-014 -1.35174e-014
lhumerus 99.3038 -14.1209 53.1012
lradius 24.1569
lwrist -136.422
lhand -18.897 7.19611
lfingers 7.12502
lthumb 7.40458 37.0465
rfemur -3.46341 -6.16686 23.8679
rtibia 40.0444
rfoot 15.7392 -3.29854
rtoes -26.1133
lfemur 3.00092 4.55306 -10.966
ltibia 34.1526
lfoot 13.4002 1.3231
ltoes -38.8783
151
root -6.32648 19.7775 -3.54428 155.386 -45.2275 -168.111
lowerback 8.57806 -4.32006 -1.99013
upperback 2.19155 -6.00104 0.620863
thorax -2.24627 -3.02852 2.36053
lowerneck 3.3313 -15.3536 -10.4645
upperneck -0.441669 -21.396 13.7136
head 1.938 -10.8742 5.07027
rclavicle 1.22054e-013 -5.56597e-015
rhumerus -302.403 16.1155 -327.418
rradius 42.4888
rwrist -87.0212
rhand -47.0182 1061.36
rfingers 7.12502
rthumb -19.7248 -47.6607
lclavicle 1.22054e-013 -5.56597e-015
lhumerus 99.2916 -13.3441 51.491
lradius 23.997
lwrist -135.406
lhand -19.2352 5.74134
lfingers 7.12502
lthumb 7.07809 35.603
rfemur -3.71704 -6.39395 23.7593
rtibia 40.5367
rfoot 16.3528 -2.66479
rtoes -24.2363
lfemur 2.95153 3.947 -10.7248
ltibia 34.4807
lfoot 13.4675 1.26875
ltoes -37.4806
